<!DOCTYPE svg PUBLIC "-//W3C//DTD SVG 1.1//EN" "http://www.w3.org/Graphics/SVG/1.1/DTD/svg11.dtd">
<!-- Uploaded to: SVG Repo, www.svgrepo.com, Transformed by: SVG Repo Mixer Tools -->
<svg fill="#d7d4d4" width="800px" height="800px" viewBox="0 0 32 32" version="1.1" xmlns="http://www.w3.org/2000/svg">
<g id="SVGRepo_bgCarrier" stroke-width="0"/>
<g id="SVGRepo_tracerCarrier" stroke-linecap="round" stroke-linejoin="round"/>
<g id="SVGRepo_iconCarrier"> <title>explosive-materials</title> <path d="M30.985 28.883v-3.097l-19.47 1.048c0.054-0.31 0.083-0.628 0.083-0.954 0-0.012-0-0.025-0-0.037l19.388-3.665v-3.171l-19.454 6.017c-0.054-0.348-0.142-0.686-0.258-1.010l19.712-10.364v-4.081l-20.060 13.673c-0.157-0.287-0.339-0.557-0.542-0.81l20.602-18.512v-3.171l-0 0h-2.514l-18.814 20.935c-0.252-0.214-0.524-0.407-0.812-0.573l13.905-20.362h-4.154l-10.505 19.999c-0.24-0.093-0.488-0.17-0.743-0.23l6.146-19.77h-2.988l-3.696 19.673c-0.215-0.028-0.434-0.043-0.656-0.045l1.036-19.627h-2.806l1.079 19.663c-0.237 0.027-0.469 0.069-0.696 0.125l-3.737-19.789v9.438l3.255 10.494c-2.15 0.749-3.693 2.793-3.693 5.198 0 3.039 2.464 5.503 5.503 5.503 1.752 0 3.312-0.819 4.32-2.094l5.010 1.562h7.106l-11.67-2.219c0.155-0.268 0.288-0.55 0.397-0.844l19.727 1.096z"/> </g>
</svg>