<?xml version="1.0" encoding="iso-8859-1"?>
<!-- Uploaded to: SVG Repo, www.svgrepo.com, Generator: SVG Repo Mixer Tools -->
<svg fill="#000000" height="800px" width="800px" version="1.1" id="Layer_1" xmlns="http://www.w3.org/2000/svg" xmlns:xlink="http://www.w3.org/1999/xlink" 
	 viewBox="0 0 511.984 511.984" xml:space="preserve">
<g>
	<g>
		<path d="M496.368,15.352c-20.117-20.139-55.296-20.139-75.413,0c-10.069,10.069-15.616,23.467-15.616,37.717
			c0,10.624,3.093,20.757,8.832,29.419L3.12,493.539c-4.16,4.16-4.16,10.923,0,15.083c2.091,2.069,4.821,3.115,7.552,3.115
			s5.461-1.045,7.531-3.115L429.253,97.571c8.64,5.739,18.795,8.832,29.419,8.832c14.251,0,27.627-5.547,37.696-15.616
			c10.069-10.091,15.616-23.467,15.616-37.717S506.437,25.421,496.368,15.352z M481.285,75.704
			c-12.075,12.075-33.173,12.075-45.248,0c-6.037-6.059-9.365-14.08-9.365-22.635s3.307-16.597,9.365-22.635
			c6.059-6.037,14.08-9.365,22.635-9.365s16.576,3.307,22.613,9.365c6.037,6.059,9.365,14.08,9.365,22.635
			S487.323,69.667,481.285,75.704z"/>
	</g>
</g>
</svg>