<!DOCTYPE svg PUBLIC "-//W3C//DTD SVG 1.1//EN" "http://www.w3.org/Graphics/SVG/1.1/DTD/svg11.dtd">
<!-- Uploaded to: SVG Repo, www.svgrepo.com, Transformed by: SVG Repo Mixer Tools -->
<svg fill="#ffffff" width="800px" height="800px" viewBox="0 0 24 24" xmlns="http://www.w3.org/2000/svg" stroke="#ffffff">
<g id="SVGRepo_bgCarrier" stroke-width="0"/>
<g id="SVGRepo_tracerCarrier" stroke-linecap="round" stroke-linejoin="round"/>
<g id="SVGRepo_iconCarrier">
<path d="M22,9c0,3.19-2.9,5.819-7,6.691V20l-3,2L9,20V15.691C4.9,14.819,2,12.19,2,9S4.984,2.882,9.1,2.021a1,1,0,1,1,.41,1.958C6.367,4.636,4,6.8,4,9c0,2.71,3.664,5,8,5s8-2.29,8-5c0-2.2-2.367-4.364-5.505-5.021a1,1,0,1,1,.41-1.958C19.016,2.882,22,5.817,22,9Z"/>
</g>
</svg>