<!DOCTYPE svg PUBLIC "-//W3C//DTD SVG 1.1//EN" "http://www.w3.org/Graphics/SVG/1.1/DTD/svg11.dtd">
<!-- Uploaded to: SVG Repo, www.svgrepo.com, Transformed by: SVG Repo Mixer Tools -->
<svg height="800px" width="800px" version="1.1" id="Layer_1" xmlns="http://www.w3.org/2000/svg" xmlns:xlink="http://www.w3.org/1999/xlink" viewBox="0 0 512 512" xml:space="preserve" fill="#000000" transform="matrix(-1, 0, 0, 1, 0, 0)">
<g id="SVGRepo_bgCarrier" stroke-width="0"/>
<g id="SVGRepo_tracerCarrier" stroke-linecap="round" stroke-linejoin="round"/>
<g id="SVGRepo_iconCarrier"> <path style="fill:#000000;" d="M72.758,120.455c-30.015,0-54.434-24.419-54.434-54.434s24.419-54.434,54.434-54.434 s54.434,24.419,54.434,54.434S102.773,120.455,72.758,120.455z"/> <path style="fill:#333333;" d="M53.736,66.021c0-23.817,15.382-44.096,36.728-51.461c-5.555-1.918-11.509-2.973-17.707-2.973 c-30.015,0-54.434,24.419-54.434,54.434s24.419,54.434,54.434,54.434c6.198,0,12.151-1.055,17.706-2.973 C69.118,110.117,53.736,89.838,53.736,66.021z"/> <path style="fill:#000000;" d="M100.031,173.878l-12.704-12.704l-11.646,11.645l-3.686,3.686l0.224,96.472H35.032 c-15.156,0-27.486,12.33-27.486,27.486s12.33,27.486,27.486,27.486h52.127c22.074,0,40.033-17.959,40.033-40.033v-57.74 l15.012-15.012v-41.287L100.031,173.878L100.031,173.878z"/> <g> <path style="fill:#333333;" d="M104.222,260.327l-0.194-83.821l2.627-2.627h-6.625l-12.704-12.704l-11.644,11.645l-3.686,3.686 l0.224,96.472h19.382C98.583,272.977,104.239,267.308,104.222,260.327z"/> <path style="fill:#333333;" d="M39.578,300.463c0-15.156,12.33-27.486,27.486-27.486H35.032c-15.156,0-27.486,12.33-27.486,27.486 s12.33,27.486,27.486,27.486h32.033C51.908,327.949,39.578,315.619,39.578,300.463z"/> </g> <path style="fill:#000000;" d="M412.502,426.95c-9.978,0-19.542-3.699-26.931-10.416L266.779,305.853l43.116-43.116l107.874,107.111 l33.188-19.913c4.188-2.513,8.968-3.841,13.823-3.841c8.391,0,16.416,4.019,21.468,10.753c4.655,6.209,6.398,14.122,4.78,21.71 c-1.618,7.588-6.436,14.102-13.218,17.87l-45.865,25.48C426.004,425.206,419.282,426.95,412.502,426.95z"/> <path style="fill:#333333;" d="M417.369,416.534L298.577,305.853l27.273-27.273l-15.955-15.843l-43.116,43.116l118.793,110.681 c7.388,6.716,16.953,10.416,26.931,10.416c5.455,0,10.865-1.147,15.868-3.307C424.376,421.91,420.656,419.522,417.369,416.534z"/> <path style="fill:#000000;" d="M153.6,500.413c-15.156,0-27.486-12.33-27.486-27.486v-53.704c0-10.693,4.164-20.746,11.725-28.308 l74.283-74.283L71.996,176.505l70.805-70.805c17.246-17.246,40.177-26.746,64.569-26.746h127.705 c22.074,0,40.033,17.959,40.033,40.033v41.348c0,15.156-12.33,27.486-27.486,27.486s-27.486-12.33-27.486-27.486v-26.408h-95.171 l97.359,97.36c8.324,8.324,12.802,19.388,12.614,31.158c-0.19,11.77-5.023,22.684-13.611,30.735L181.086,424.655v48.271 C181.086,488.083,168.756,500.413,153.6,500.413z"/> <path style="fill:#292929;" d="M158.563,472.926v-53.704c0-10.617,4.218-20.8,11.725-28.308l62.09-62.09 c6.735-6.735,6.735-17.653,0-24.386L118.073,190.133c-7.527-7.527-7.527-19.73,0-27.257l57.177-57.176 c17.246-17.246,40.177-26.746,64.569-26.746H207.37c-24.218,0-47.444,9.62-64.569,26.745l-70.806,70.806l140.126,140.126 l-74.283,74.283c-7.506,7.508-11.724,17.69-11.724,28.308v53.085c0,14.747,11.361,27.335,26.089,28.071 c6.599,0.329,12.723-1.688,17.621-5.283C163.002,490.089,158.563,482.017,158.563,472.926z"/> <path style="fill:#000000;" d="M234.442,507.958H105.095c-4.465,0-8.084-3.62-8.084-8.084s3.62-8.084,8.084-8.084h129.347 c4.465,0,8.084,3.62,8.084,8.084S238.907,507.958,234.442,507.958z"/> <g> <path style="fill:#000000;" d="M299.116,507.958h-21.558c-4.465,0-8.084-3.62-8.084-8.084s3.62-8.084,8.084-8.084h21.558 c4.465,0,8.084,3.62,8.084,8.084S303.58,507.958,299.116,507.958z"/> <path style="fill:#000000;" d="M363.789,507.958h-21.558c-4.465,0-8.084-3.62-8.084-8.084s3.62-8.084,8.084-8.084h21.558 c4.465,0,8.084,3.62,8.084,8.084S368.254,507.958,363.789,507.958z"/> <path style="fill:#000000;" d="M439.242,44.463h-21.558c-4.465,0-8.084-3.62-8.084-8.084s3.62-8.084,8.084-8.084h21.558 c4.465,0,8.084,3.62,8.084,8.084S443.707,44.463,439.242,44.463z"/> </g> <path style="fill:#000000;" d="M385.347,44.463h-64.674c-4.465,0-8.084-3.62-8.084-8.084s3.62-8.084,8.084-8.084h64.674 c4.465,0,8.084,3.62,8.084,8.084S389.812,44.463,385.347,44.463z"/> <path style="fill:#000000;" d="M503.916,44.463h-21.558c-4.465,0-8.084-3.62-8.084-8.084s3.62-8.084,8.084-8.084h21.558 c4.465,0,8.084,3.62,8.084,8.084S508.38,44.463,503.916,44.463z"/> <path d="M72.758,128c34.176,0,61.979-27.803,61.979-61.979S106.934,4.042,72.758,4.042S10.779,31.845,10.779,66.021 S38.582,128,72.758,128z M72.758,20.211c25.26,0,45.811,20.55,45.811,45.811s-20.55,45.811-45.811,45.811 s-45.811-20.55-45.811-45.811S47.497,20.211,72.758,20.211z"/> <path d="M299.116,491.789h-21.558c-4.465,0-8.084,3.62-8.084,8.084s3.62,8.084,8.084,8.084h21.558c4.465,0,8.084-3.62,8.084-8.084 S303.58,491.789,299.116,491.789z"/> <path d="M363.789,491.789h-21.558c-4.465,0-8.084,3.62-8.084,8.084s3.62,8.084,8.084,8.084h21.558c4.465,0,8.084-3.62,8.084-8.084 S368.254,491.789,363.789,491.789z"/> <path d="M417.684,44.463h21.558c4.465,0,8.084-3.62,8.084-8.084s-3.62-8.084-8.084-8.084h-21.558c-4.465,0-8.084,3.62-8.084,8.084 S413.22,44.463,417.684,44.463z"/> <path d="M320.674,44.463h64.674c4.465,0,8.084-3.62,8.084-8.084s-3.62-8.084-8.084-8.084h-64.674c-4.465,0-8.084,3.62-8.084,8.084 S316.209,44.463,320.674,44.463z"/> <path d="M503.916,28.295h-21.558c-4.465,0-8.084,3.62-8.084,8.084s3.62,8.084,8.084,8.084h21.558c4.465,0,8.084-3.62,8.084-8.084 S508.38,28.295,503.916,28.295z"/> <path d="M492.283,352.321c-10.611-14.147-30.046-17.953-45.21-8.856l-28.136,16.882l-79.972-79.972 c2.206-5.592,3.416-11.597,3.516-17.808c0.223-13.83-5.041-26.834-14.822-36.614l-84.479-84.479h69.41v18.863 c0,19.316,15.716,35.032,35.032,35.032s35.032-15.716,35.032-35.032v-41.348c0-26.235-21.343-47.578-47.578-47.578H207.369 c-26.406,0-51.232,10.283-69.905,28.955l-69.948,69.948c0.013,0.002,0.025,0.006,0.038,0.01c-1.759,1.482-2.88,3.7-2.88,6.182 v88.926H35.032C15.716,265.432,0,281.147,0,300.463s15.716,35.032,35.032,35.032h52.127c26.235,0,47.578-21.343,47.578-47.578 v-37.999l66.715,66.715l-68.948,68.948c-8.987,8.985-13.936,20.934-13.936,33.642v53.704c0,6.942,2.038,13.413,5.536,18.863h-19.01 c-4.465,0-8.084,3.62-8.084,8.084s3.62,8.084,8.084,8.084h129.347c4.465,0,8.084-3.62,8.084-8.084s-3.62-8.084-8.084-8.084h-51.347 c3.498-5.45,5.536-11.922,5.536-18.863v-45.003l97.601-91.5l94.263,85.695c8.978,8.162,20.439,12.38,32.008,12.38 c7.903,0,15.857-1.969,23.103-5.995l45.866-25.48c8.689-4.828,14.861-13.171,16.934-22.892 C500.478,370.408,498.247,360.273,492.283,352.321z M118.568,287.916c0,17.32-14.09,31.41-31.41,31.41H35.032 c-10.401,0-18.863-8.463-18.863-18.863c0-10.401,8.463-18.863,18.863-18.863h37.726c4.465,0,8.084-3.62,8.084-8.084v-77.494 l37.726,37.726V287.916z M482.593,376.759c-1.098,5.151-4.37,9.573-8.973,12.131l-45.865,25.48 c-11.786,6.547-26.407,4.853-36.382-4.216l-93.306-84.824l3.873-3.631c2.957-2.772,3.374-7.317,0.972-10.582 c-0.032-0.044-0.065-0.087-0.096-0.132c-2.841-3.864-8.422-4.375-11.92-1.095L175.019,418.523c-1.631,1.528-2.556,3.663-2.556,5.898 v48.005c0,10.55-8.633,19.536-19.183,19.36c-10.254-0.17-18.543-8.566-18.543-18.86v-53.704c0-8.33,3.309-16.319,9.2-22.21 l74.664-74.664c3.157-3.157,3.157-8.276,0-11.432l-86.23-86.23c-0.001-0.001-0.002-0.002-0.003-0.002L84.19,176.505l64.707-64.707 c15.508-15.508,36.541-24.219,58.471-24.219h127.706c17.348,0,31.41,14.062,31.41,31.41v40.848c0,10.55-8.633,19.536-19.183,19.36 c-10.254-0.17-18.543-8.566-18.543-18.86v-26.947c0-4.465-3.62-8.084-8.084-8.084h-96.78c-2.645,0-5.216,1.167-6.763,3.313 c-2.394,3.321-1.94,7.732,0.816,10.488l97.814,97.814c6.653,6.653,10.62,15.642,10.558,25.05c-0.064,9.542-3.94,18.404-10.89,24.919 l-1.258,1.179c-2.961,2.777-3.37,7.325-0.961,10.594c0.032,0.044,0.065,0.087,0.097,0.132c2.84,3.857,8.415,4.36,11.91,1.084 l1.272-1.192c1.375-1.289,2.661-2.646,3.87-4.055l81.613,81.613c2.623,2.624,6.695,3.125,9.876,1.216l33.548-20.129 c8.036-4.82,18.333-2.804,23.956,4.693C482.509,366.236,483.691,371.606,482.593,376.759z"/> </g>
</svg>