<?xml version="1.0" encoding="iso-8859-1"?>
<!-- Uploaded to: SVG Repo, www.svgrepo.com, Generator: SVG Repo Mixer Tools -->
<svg height="800px" width="800px" version="1.1" id="Capa_1" xmlns="http://www.w3.org/2000/svg" xmlns:xlink="http://www.w3.org/1999/xlink" 
	 viewBox="0 0 19.388 19.388" xml:space="preserve">
<g>
	<path style="fill:#030104;" d="M10.31,2.638c0.107-0.029,0.216-0.039,0.318-0.014c0.351,0.085,0.641,0.563,0.841,1.379
		c0.157,0.653,0.445,1.529,1.107,1.586c0.021,0.002,0.042,0.003,0.063,0.003c0.594,0,1.066-0.72,1.321-1.207
		c0.302-0.362,0.519-0.81,0.607-1.013c0.071-0.165-0.005-0.357-0.17-0.429c-0.166-0.073-0.357,0.004-0.429,0.17
		c-0.073,0.169-0.166,0.345-0.266,0.508c-0.078,0.029-0.147,0.09-0.183,0.174c-0.036,0.083-0.077,0.167-0.121,0.25
		c-0.121,0.136-0.235,0.219-0.32,0.209c-0.094-0.007-0.325-0.246-0.531-1.09c-0.078-0.322-0.175-0.598-0.284-0.838
		c0.486,0.23,1.021,0.364,1.387,0.055c0.605-0.51,0.159-1.794,0.008-2.176c-0.067-0.167-0.256-0.248-0.423-0.183
		c-0.168,0.066-0.249,0.255-0.183,0.422c0.24,0.613,0.328,1.312,0.179,1.438c-0.073,0.061-0.406,0.055-1.148-0.396
		c-0.952-0.581-1.709-0.709-2.245-0.381C9.359,1.395,9.2,1.964,9.147,2.385c-0.03,0.08-0.088,0.226-0.17,0.43
		C8.963,2.84,8.952,2.866,8.946,2.894C7.823,5.699,2.957,17.876,2.828,18.769c-0.146,1.009,13.024,0.618,13.688,0
		C17.124,18.202,11.294,4.871,10.31,2.638z M10.782,1.991c-0.035-0.008-0.068-0.005-0.103-0.011c0.133-0.047,0.27-0.071,0.396-0.04
		c0.308,0.074,0.564,0.466,0.759,1.106C11.572,2.454,11.222,2.098,10.782,1.991z M12.813,4.853
		c-0.064,0.053-0.125,0.086-0.173,0.086c-0.003,0-0.007,0-0.01,0c-0.083-0.007-0.274-0.196-0.459-0.826
		C12.319,4.45,12.523,4.739,12.813,4.853z M8.906,8.381l0.542-1.1l0.542,1.1l1.215,0.177l-0.879,0.855l0.208,1.208l-1.086-0.569
		l-1.085,0.569L8.57,9.413L7.693,8.558L8.906,8.381z M10.332,17.657c-1.394,0.927-3.274,0.548-4.201-0.845
		c-0.927-1.395-0.548-3.274,0.846-4.202c0.178-0.117,0.362-0.215,0.553-0.291c-0.987,1.001-1.173,2.589-0.364,3.804
		c0.809,1.216,2.344,1.659,3.647,1.136C10.671,17.406,10.51,17.539,10.332,17.657z M13.026,16.174l-1.461-0.768l-1.46,0.768
		l0.278-1.627L9.2,13.396l1.635-0.237l0.729-1.48l0.73,1.48l1.633,0.237l-1.183,1.151L13.026,16.174z"/>
</g>
</svg>